<svg width="388pt" height="190pt" viewBox="0 0 388.07 190" xmlns="http://www.w3.org/2000/svg"><g class="graph"><path fill="#fff" stroke="transparent" d="M0 190V0h388.07v190H0z"/><g class="node" transform="translate(4 186)"><ellipse fill="none" stroke="#000" cx="42.25" cy="-87" rx="42.49" ry="18"/><text text-anchor="middle" x="42.25" y="-83.3" font-family="Times,serif" font-size="14">DotLang</text></g><g class="node" transform="translate(4 186)"><ellipse fill="none" stroke="#000" cx="199.79" cy="-164" rx="79.09" ry="18"/><text text-anchor="middle" x="199.79" y="-160.3" font-family="Times,serif" font-size="14">DoubleQuoteString</text></g><g class="edge" transform="translate(4 186)"><path fill="none" stroke="#000" d="M64.07-102.46c15.1-10.71 36.32-24.75 56.42-34.54 6.67-3.25 13.82-6.28 21-9.06"/><path stroke="#000" d="M140.66-149.48l10.59-.2-8.16 6.76-2.43-6.56z"/></g><g class="node" transform="translate(4 186)"><ellipse fill="none" stroke="#000" cx="199.79" cy="-110" rx="53.89" ry="18"/><text text-anchor="middle" x="199.79" y="-106.3" font-family="Times,serif" font-size="14">Html.Parser</text></g><g class="edge" transform="translate(4 186)"><path fill="none" stroke="#000" d="M82.5-92.8c17.47-2.59 38.41-5.68 57.68-8.53"/><path stroke="#000" d="M139.67-104.8l10.41 2-9.38 4.93-1.03-6.93z"/></g><g class="node" transform="translate(4 186)"><ellipse fill="none" stroke="#000" cx="347.58" cy="-87" rx="32.49" ry="18"/><text text-anchor="middle" x="347.58" y="-83.3" font-family="Times,serif" font-size="14">Parser</text></g><g class="edge" transform="translate(4 186)"><path fill="none" stroke="#000" d="M84.12-84.49c11.74.62 24.56 1.18 36.37 1.49 70.46 1.82 88.14 2.09 158.59 0 8.34-.25 17.25-.67 25.78-1.14"/><path stroke="#000" d="M304.81-87.64l10.19 2.9-9.77 4.08-.42-6.98z"/></g><g class="node" transform="translate(4 186)"><ellipse fill="none" stroke="#000" cx="199.79" cy="-18" rx="27" ry="18"/><text text-anchor="middle" x="199.79" y="-14.3" font-family="Times,serif" font-size="14">Set</text></g><g class="edge" transform="translate(4 186)"><path fill="none" stroke="#000" d="M70.59-73.42c14.7 7.18 33.18 16.01 49.9 23.42 15.05 6.67 31.94 13.64 46.17 19.36"/><path stroke="#000" d="M168.04-33.85l7.98 6.96-10.58-.46 2.6-6.5z"/></g><g class="edge" transform="translate(4 186)"><path fill="none" stroke="#000" d="M249.37-149.83c10.07 3.64 20.42 7.94 29.71 12.83 14.88 7.84 30.06 18.77 42.25 28.41"/><path stroke="#000" d="M323.68-111.19l5.56 9.02-9.97-3.58 4.41-5.44z"/></g><g class="node" transform="translate(4 186)"><ellipse fill="none" stroke="#000" cx="347.58" cy="-164" rx="27.9" ry="18"/><text text-anchor="middle" x="347.58" y="-160.3" font-family="Times,serif" font-size="14">Char</text></g><g class="edge" transform="translate(4 186)"><path fill="none" stroke="#000" d="M279.23-164h30.1"/><path stroke="#000" d="M309.35-167.5l10 3.5-10 3.5v-7z"/></g></g></svg>
